<svg fill="none" xmlns="http://www.w3.org/2000/svg" viewBox="0 0 120 16"><path d="M25.1294.65882c-2.1647 0-3.9529.75294-5.4588 2.25883-1.5059 1.50588-2.2588 3.29411-2.2588 5.3647 0 2.35295.847 4.32945 2.5411 5.74115C21.4588 15.3412 23.1529 16 25.1294 16c2.1647 0 4.0471-.7529 5.553-2.2588 1.5058-1.5059 2.2588-3.2941 2.2588-5.45885 0-2.1647-.753-3.95294-2.2588-5.45882-1.6-1.41177-3.3883-2.1647-5.553-2.1647zm3.8588 11.57648c-1.0353 1.0353-2.3529 1.6-3.9529 1.6-1.4118 0-2.7294-.5647-3.7647-1.6-1.1294-1.0353-1.6941-2.44706-1.6941-4.04706 0-1.60001.5647-2.82353 1.6-3.95295 1.0353-1.03529 2.3529-1.6 3.9529-1.6 1.5059 0 2.8235.56471 3.8588 1.6 1.0353 1.0353 1.6 2.35294 1.6 3.95295 0 1.69411-.5647 3.01176-1.6 4.04706zm35.953-4.51765c.847-.75294 1.2235-1.6 1.2235-2.72941 0-.56471-.0941-1.12942-.3765-1.69412-.2823-.56471-.5647-1.0353-1.0353-1.41177-.3764-.37647-.9411-.65882-1.5058-.75294-.5647-.18823-1.4118-.18823-2.353-.18823h-2.2588v6.30588h-1.7882c-1.1295 0-2.0706 1.12941-2.0706 1.88235h3.8588v6.58819h3.3882c1.0353 0 1.8824-.0941 2.5412-.2823.6588-.1882 1.1294-.5647 1.6941-1.0353.8471-.7529 1.2236-1.7882 1.2236-2.9176 0-.8471-.1883-1.69417-.6589-2.35299C66.3529 8.47059 65.6941 8 64.9412 7.71765zm-4.0471-4.8h.753c.7529 0 1.3176.18823 1.6941.5647.3765.37647.5647.84706.5647 1.6s-.1882 1.22353-.5647 1.6c-.3765.37647-.9412.56471-1.7883.56471H60.8V2.91765h.0941zm3.6706 10.07055c-.4706.3765-1.2235.5647-2.2588.5647h-1.4118V9.03529h1.1294c1.2236 0 2.0706.18824 2.5412.65883.4706.47058.7529.94118.7529 1.59998 0 .753-.2823 1.3177-.7529 1.6941zM8.56471 8.65882c.5647.65883.84706 1.59998.84706 2.54118 0 1.4118-.47059 2.4471-1.31765 3.3882-.94118.9412-2.07059 1.3177-3.38824 1.3177-1.31764 0-2.35294-.3765-3.2-1.1294-.84706-.753-1.31765-1.7883-1.50588-3.2 1.41176 0 2.16471.2823 2.82353 1.3176.47059.6588 1.12941.9412 1.97647.9412.65882 0 1.31765-.1882 1.69412-.6588.47059-.4706.65882-1.0353.65882-1.7883 0-.2823 0-.5647-.09412-.7529-.09411-.2824-.18823-.4706-.37647-.65883-.18823-.18823-.37647-.37647-.65882-.5647-.28235-.18824-.56471-.37648-.94118-.47059l-1.41176-.56471C1.6 7.52941.65882 6.30588.65882 4.61176c0-1.12941.47059-2.07058 1.31765-2.82352.84706-.75295 1.88235-1.12942 3.2-1.12942 1.6 0 2.82353.65883 3.76471 2.07059-1.0353.94118-1.69412.75294-2.72942.18824-.28235-.09412-.65882-.18824-1.03529-.18824-.65882 0-1.12941.18824-1.50588.56471-.37647.37647-.65883.75294-.65883 1.31764 0 .75295.56471 1.31765 1.6 1.78824l1.50589.56471C7.15294 7.43529 8 8 8.56471 8.65882zm95.81129.56471c.753-.28235 1.318-.65882 1.789-1.31765.564-.75294.941-1.69412.941-2.72941 0-1.31765-.471-2.44706-1.412-3.2-.847-.75294-2.259-1.12941-4.423-1.12941h-2.6357V15.6235h2.2587V9.6h1.224l3.294 4.7059c.47.5647 1.223 1.4117 2.729 1.4117h.941l-4.706-6.49407zm-3.482-1.50588V3.01176h1.035c2.071 0 3.106.75295 3.106 2.25883 0 1.6-1.035 2.44706-3.2 2.44706h-.941zM89.2235 15.7176h.6589L82.8235 0l-7.3411 15.7176h2.447l1.6941-3.5764h6.3059l.8471 1.8823c.2823.8471.9412 1.6941 2.447 1.6941zm-8.7529-5.647l2.2588-5.08236 2.1647 5.08236h-4.4235zm-32.2824 3.5765v2.0705h-7.7176V.65882h.2823c.8471 0 1.9765.56471 1.9765 2.07059V13.6471h5.4588zM120 .65882V15.7176h-2.259V2.63529c0-1.50588 1.13-2.07058 1.977-2.07058H120v.09411z" fill="#22211F"/></svg>