<svg fill="none" xmlns="http://www.w3.org/2000/svg" viewBox="0 0 133 26"><path d="M66.625 2.71289l3.1866 6.45563 7.1259 1.04158-5.1563 5.0222 1.2169 7.095-6.3731-3.3516-6.3731 3.3516 1.2169-7.095-5.1563-5.0222 7.1259-1.04158 3.1866-6.45563zM93.4375 2.71289l3.1866 6.45563 7.1259 1.04158-5.1562 5.0222 1.2168 7.095-6.3731-3.3516-6.3731 3.3516 1.2168-7.095-5.1562-5.0222 7.1259-1.04158 3.1866-6.45563zM120.25 2.71289l3.187 6.45563 7.125 1.04158-5.156 5.0222 1.217 7.095-6.373-3.3516-6.373 3.3516 1.217-7.095-5.156-5.0222 7.125-1.04158 3.187-6.45563zM39.8125 2.71289l3.1866 6.45563 7.1259 1.04158-5.1562 5.0222 1.2168 7.095-6.3731-3.3516-6.3731 3.3516 1.2168-7.095L29.5 10.2101l7.1259-1.04158 3.1866-6.45563zM13 2.71289l3.1866 6.45563 7.1259 1.04158-5.1563 5.0222 1.2169 7.095L13 18.9757l-6.37312 3.3516 1.21687-7.095-5.15625-5.0222 7.12594-1.04158L13 2.71289z" fill="#fff"/></svg>