<svg fill="none" xmlns="http://www.w3.org/2000/svg" viewBox="0 0 24 24"><path clip-rule="evenodd" d="M7.42226 19.8203c.422 0 .765.343.765.765s-.343.764-.765.764-.764-.342-.764-.764.342-.765.764-.765zM18.6747 19.8203c.422 0 .765.343.765.765s-.343.764-.765.764-.765-.342-.765-.764.343-.765.765-.765z" stroke="#22211F" stroke-width="1.5" stroke-linecap="round" stroke-linejoin="round"/><path d="M2.74988 3.25l2.08.36.963 11.473c.078.935.859 1.653 1.797 1.653H18.5019c.896 0 1.656-.658 1.785-1.546l.949-6.558c.117-.809-.51-1.533-1.327-1.533H5.16388" stroke="#22211F" stroke-width="1.5" stroke-linecap="round" stroke-linejoin="round"/><path opacity=".4" d="M14.1254 10.7949h2.773" stroke="#22211F" stroke-width="1.5" stroke-linecap="round" stroke-linejoin="round"/></svg>