<svg fill="none" xmlns="http://www.w3.org/2000/svg" viewBox="10 6 40 40"><g opacity=".1" filter="url(#filter0_d)"><circle cx="30" cy="26" r="20" fill="#fff"/><circle cx="30" cy="26" r="19.5" stroke="#05386B"/></g><path d="M38.468 20.714a6.987 6.987 0 01-2.001.548A3.497 3.497 0 0038 19.334a6.967 6.967 0 01-2.213.846 3.485 3.485 0 00-5.939 3.178 9.894 9.894 0 01-7.183-3.642 3.485 3.485 0 001.078 4.653 3.474 3.474 0 01-1.578-.435v.043a3.488 3.488 0 002.796 3.418c-.514.139-1.052.16-1.575.06a3.487 3.487 0 003.256 2.42 6.995 6.995 0 01-5.16 1.444 9.858 9.858 0 005.342 1.566c6.41 0 9.917-5.31 9.917-9.916 0-.15-.004-.302-.011-.45a7.08 7.08 0 001.74-1.804l-.002-.001z" fill="#05386B"/><defs><filter id="filter0_d" x="0" y="0" width="60" height="60" filterUnits="userSpaceOnUse" color-interpolation-filters="sRGB"><feFlood flood-opacity="0" result="BackgroundImageFix"/><feColorMatrix in="SourceAlpha" values="0 0 0 0 0 0 0 0 0 0 0 0 0 0 0 0 0 0 127 0"/><feOffset dy="4"/><feGaussianBlur stdDeviation="5"/><feColorMatrix values="0 0 0 0 0.0313726 0 0 0 0 0.309804 0 0 0 0 0.435294 0 0 0 0.05 0"/><feBlend in2="BackgroundImageFix" result="effect1_dropShadow"/><feBlend in="SourceGraphic" in2="effect1_dropShadow" result="shape"/></filter></defs></svg>