<svg fill="none" xmlns="http://www.w3.org/2000/svg" viewBox="0 0 253 64"><g clip-path="url(#clip0)"><path d="M118.307 21.244c-3.054 0-5.577 1.062-7.701 3.187-2.125 2.124-3.187 4.647-3.187 7.568 0 3.32 1.195 6.108 3.585 8.1 2.125 1.859 4.515 2.788 7.303 2.788 3.054 0 5.71-1.062 7.834-3.187 2.125-2.124 3.187-4.647 3.187-7.7 0-3.055-1.062-5.578-3.187-7.702-2.257-1.992-4.78-3.054-7.834-3.054zm5.444 16.332c-1.461 1.46-3.32 2.257-5.577 2.257-1.991 0-3.85-.797-5.311-2.257-1.593-1.46-2.39-3.452-2.39-5.71 0-2.257.797-3.983 2.257-5.576 1.461-1.461 3.32-2.258 5.577-2.258 2.124 0 3.983.797 5.444 2.258 1.461 1.46 2.257 3.32 2.257 5.576 0 2.39-.796 4.25-2.257 5.71zm50.722-6.374c1.195-1.062 1.726-2.257 1.726-3.85 0-.797-.133-1.594-.531-2.39-.398-.797-.797-1.46-1.461-1.992-.531-.531-1.327-.93-2.124-1.062-.797-.266-1.992-.266-3.32-.266h-3.186v8.896h-2.523c-1.593 0-2.921 1.594-2.921 2.656h5.444v9.295h4.78c1.46 0 2.655-.133 3.585-.399.929-.265 1.593-.796 2.39-1.46 1.195-1.062 1.726-2.523 1.726-4.116 0-1.195-.266-2.39-.929-3.32-.664-.93-1.594-1.593-2.656-1.992zm-5.71-6.771h1.063c1.062 0 1.859.265 2.39.796.531.531.796 1.195.796 2.258 0 1.062-.265 1.726-.796 2.257-.531.531-1.328.796-2.523.796h-1.062v-6.107h.132zm5.179 14.207c-.664.531-1.726.797-3.187.797h-1.992V33.06h1.594c1.726 0 2.921.266 3.585.93.664.664 1.062 1.328 1.062 2.257 0 1.062-.398 1.859-1.062 2.39zM94.938 32.53c.796.93 1.195 2.258 1.195 3.585 0 1.992-.664 3.453-1.86 4.78-1.327 1.328-2.92 1.86-4.78 1.86-1.858 0-3.319-.532-4.514-1.594-1.195-1.062-1.859-2.523-2.124-4.515 1.991 0 3.054.399 3.983 1.86.664.929 1.594 1.327 2.788 1.327.93 0 1.86-.265 2.39-.93.664-.663.93-1.46.93-2.522 0-.398 0-.797-.133-1.062-.133-.399-.265-.664-.53-.93-.266-.265-.532-.531-.93-.797-.399-.265-.797-.53-1.328-.663l-1.992-.797c-2.921-1.195-4.249-2.921-4.249-5.311 0-1.594.664-2.922 1.86-3.984 1.194-1.062 2.655-1.593 4.514-1.593 2.257 0 3.983.93 5.31 2.921-1.46 1.328-2.39 1.062-3.85.266-.398-.133-.93-.266-1.46-.266-.93 0-1.594.266-2.125.797-.531.53-.93 1.062-.93 1.859 0 1.062.797 1.859 2.258 2.522l2.124.797c1.461.664 2.656 1.46 3.453 2.39zm135.17.797c1.062-.398 1.859-.93 2.523-1.859.796-1.062 1.327-2.39 1.327-3.85 0-1.86-.663-3.453-1.991-4.515-1.195-1.062-3.187-1.594-6.241-1.594h-3.718v20.847h3.187v-8.498h1.726l4.647 6.639c.664.797 1.727 1.992 3.851 1.992h1.328l-6.639-9.162zm-4.913-2.125v-6.639h1.461c2.921 0 4.381 1.063 4.381 3.187 0 2.257-1.46 3.452-4.514 3.452h-1.328zM208.73 42.49h.93l-9.959-22.174-10.357 22.174h3.453l2.39-5.046h8.896l1.195 2.656c.398 1.195 1.328 2.39 3.452 2.39zm-12.348-7.967l3.186-7.17 3.054 7.17h-6.24zm-45.544 5.046v2.92H139.95V21.245h.399c1.195 0 2.788.797 2.788 2.921v15.403h7.701zm101.311-18.324v21.245h-3.186V24.032c0-2.124 1.593-2.92 2.788-2.92h.398v.132zM64 32L54.573 9.427 32 0 9.427 9.427 0 32l9.427 22.573L32 64l22.573-9.427L64 32z" fill="#22211F"/><path d="M42.091 43.022c0 2.124-.796 3.983-2.39 5.576-1.593 1.46-3.718 2.258-6.373 2.258h-7.834V37.843H18.19v-.133c0-1.593 1.195-2.655 3.187-2.655h4.116V31.07c0-1.991 1.062-3.186 2.788-3.186h.133v7.302h1.46c1.594 0 3.187 0 4.117-.398.133 0 .133 0 .265-.133.133 0 .266-.132.266-.132s.133 0 .133-.133h.132c.532-.266 1.195-.797 1.461-1.328.531-.664.797-1.46.797-2.39a3.97 3.97 0 00-.93-2.523c-.797-1.195-2.257-2.257-4.514-3.85-2.39-1.594-3.054-2.125-4.25-3.453-1.061-1.195-1.327-2.523-1.327-3.85 0-1.063.266-1.992.797-2.921a5.446 5.446 0 012.124-2.125A6.168 6.168 0 0132 11.154c1.195 0 2.257.266 3.32.797 1.062.531 2.124 1.593 3.186 3.187v.133l-.265.132c-1.594 1.062-2.789.266-3.32-.133-1.46-1.062-2.39-1.327-3.054-1.327-.93 0-1.46.265-2.124.796a2.948 2.948 0 00-.531 3.585c.796 1.328 2.523 2.523 4.514 3.851 2.39 1.593 3.984 2.921 4.913 4.382.93 1.328 1.328 2.655 1.328 4.116 0 1.992-.93 3.718-2.39 5.178l-.398.399c1.327.53 2.39 1.328 2.655 1.593.797.664 1.328 1.46 1.726 2.39.399.664.531 1.726.531 2.789z" fill="#F4EEE2"/><path d="M38.373 45.676c.532-.797.797-1.726.797-2.523 0-1.195-.398-2.124-1.195-3.054-.797-.93-1.859-1.46-3.187-1.726-.796-.266-2.788-.266-5.178-.266h-1.46V48.2h3.717c1.992 0 3.32-.133 4.25-.531.929-.664 1.725-1.195 2.257-1.992z" fill="#22211F"/></g><defs><clipPath id="clip0"><path fill="#fff" d="M0 0h252.149v64H0z"/></clipPath></defs></svg>