<svg fill="none" xmlns="http://www.w3.org/2000/svg" viewBox="0 0 64 64"><path d="M64 32L54.5726 9.42739 32 0 9.42739 9.42739 0 32l9.42739 22.5726L32 64l22.5726-9.4274L64 32z" fill="#22211F"/><path d="M42.0913 43.0215c0 2.1245-.7966 3.9834-2.39 5.5768-1.5934 1.4606-3.7179 2.2572-6.3735 2.2572h-7.834V37.8431h-7.3029v-.1328c0-1.5933 1.195-2.6556 3.1867-2.6556h4.1162v-3.9834c0-1.9917 1.0623-3.1867 2.7884-3.1867h.1328v7.3029h1.4606c1.5933 0 3.1867 0 4.1161-.3983.1328 0 .1328 0 .2656-.1328.1328 0 .2656-.1328.2656-.1328s.1327 0 .1327-.1328h.1328c.5311-.2655 1.195-.7967 1.4606-1.3278.5311-.6639.7967-1.4606.7967-2.39 0-.7967-.2656-1.7262-.9295-2.5228-.7967-1.1951-2.2572-2.2573-4.5145-3.8507-2.39-1.5933-3.0539-2.1245-4.249-3.4523-1.0622-1.195-1.3278-2.5228-1.3278-3.8506 0-1.0622.2656-1.9917.7967-2.9211.5311-.9295 1.195-1.5934 2.1245-2.1245.9295-.5311 1.9917-.7967 3.0539-.7967 1.1951 0 2.2573.2656 3.3195.7967 1.0623.5311 2.1245 1.5933 3.1868 3.1867v.1328l-.2656.1328c-1.5934 1.0622-2.7884.2655-3.3195-.1328-1.4606-1.0623-2.39-1.3278-3.0539-1.3278-.9295 0-1.4606.2655-2.1245.7967-1.4606 1.4605-.7967 3.1867-.5311 3.585.7966 1.3278 2.5228 2.5228 4.5145 3.8506 2.39 1.5934 3.9834 2.9212 4.9129 4.3818.9294 1.3278 1.3278 2.6556 1.3278 4.1162 0 1.9917-.9295 3.7178-2.3901 5.1784l-.3983.3983c1.3278.5312 2.39 1.3278 2.6556 1.5934.7967.6639 1.3278 1.4606 1.7261 2.39.3984.6639.5311 1.7262.5311 2.7884z" fill="#F4EEE2"/><path d="M38.3735 45.6759c.5311-.7967.7967-1.7262.7967-2.5228 0-1.1951-.3984-2.1245-1.1951-3.054-.7966-.9294-1.8589-1.4606-3.1867-1.7261-.7967-.2656-2.7884-.2656-5.1784-.2656h-1.4606v10.0913h3.7179c1.9917 0 3.3195-.1328 4.2489-.5311.9295-.6639 1.7262-1.195 2.2573-1.9917z" fill="#22211F"/></svg>